<?xml version="1.0" encoding="UTF-8"?>
<svg xmlns="http://www.w3.org/2000/svg" xmlns:xlink="http://www.w3.org/1999/xlink" width="238.904pt" height="57.29pt" viewBox="0 0 238.904 57.29" version="1.1">
<defs>
<clipPath id="clip1">
  <path d="M 11 0 L 69 0 L 69 57.289062 L 11 57.289062 Z M 11 0 "/>
</clipPath>
<clipPath id="clip2">
  <path d="M 90 0 L 148 0 L 148 57.289062 L 90 57.289062 Z M 90 0 "/>
</clipPath>
<clipPath id="clip3">
  <path d="M 170 0 L 228 0 L 228 57.289062 L 170 57.289062 Z M 170 0 "/>
</clipPath>
<clipPath id="clip4">
  <path d="M 204 0 L 238.902344 0 L 238.902344 35 L 204 35 Z M 204 0 "/>
</clipPath>
</defs>
<g id="surface1">
<g clip-path="url(#clip1)" clip-rule="nonzero">
<path style="fill:none;stroke-width:0.3985;stroke-linecap:butt;stroke-linejoin:miter;stroke:rgb(0%,0%,0%);stroke-opacity:1;stroke-miterlimit:10;" d="M 0.00128125 0.00115625 L 56.692688 0.00115625 M 0.00128125 11.337094 L 56.692688 11.337094 M 0.00128125 22.676938 L 56.692688 22.676938 M 0.00128125 34.016781 L 56.692688 34.016781 M 0.00128125 45.352719 L 56.692688 45.352719 M 0.00128125 56.688656 L 56.692688 56.688656 M 0.00128125 0.00115625 L 0.00128125 56.692563 M 11.337219 0.00115625 L 11.337219 56.692563 M 22.677063 0.00115625 L 22.677063 56.692563 M 34.016906 0.00115625 L 34.016906 56.692563 M 45.352844 0.00115625 L 45.352844 56.692563 M 56.688781 0.00115625 L 56.688781 56.692563 " transform="matrix(1,0,0,-1,11.737,57.091)"/>
</g>
<path style="fill:none;stroke-width:0.79701;stroke-linecap:butt;stroke-linejoin:miter;stroke:rgb(100%,0%,0%);stroke-opacity:1;stroke-miterlimit:10;" d="M -11.338562 22.676938 L 22.677063 22.676938 M -11.338562 34.016781 L 22.677063 34.016781 M -11.338562 45.352719 L 22.677063 45.352719 M -11.338562 56.688656 L 22.677063 56.688656 M -11.338562 22.676938 L -11.338562 56.692563 M 0.00128125 22.676938 L 0.00128125 56.692563 M 11.337219 22.676938 L 11.337219 56.692563 M 22.673156 22.676938 L 22.673156 56.692563 " transform="matrix(1,0,0,-1,11.737,57.091)"/>
<g clip-path="url(#clip2)" clip-rule="nonzero">
<path style="fill:none;stroke-width:0.3985;stroke-linecap:butt;stroke-linejoin:miter;stroke:rgb(0%,0%,0%);stroke-opacity:1;stroke-miterlimit:10;" d="M 79.368469 0.00115625 L 136.063781 0.00115625 M 79.368469 11.337094 L 136.063781 11.337094 M 79.368469 22.676938 L 136.063781 22.676938 M 79.368469 34.016781 L 136.063781 34.016781 M 79.368469 45.352719 L 136.063781 45.352719 M 79.368469 56.688656 L 136.063781 56.688656 M 79.368469 0.00115625 L 79.368469 56.692563 M 90.708313 0.00115625 L 90.708313 56.692563 M 102.048156 0.00115625 L 102.048156 56.692563 M 113.384094 0.00115625 L 113.384094 56.692563 M 124.723938 0.00115625 L 124.723938 56.692563 M 136.059875 0.00115625 L 136.059875 56.692563 " transform="matrix(1,0,0,-1,11.737,57.091)"/>
</g>
<path style="fill:none;stroke-width:0.79701;stroke-linecap:butt;stroke-linejoin:miter;stroke:rgb(100%,0%,0%);stroke-opacity:1;stroke-miterlimit:10;" d="M 90.708313 22.676938 L 124.723938 22.676938 M 90.708313 34.016781 L 124.723938 34.016781 M 90.708313 45.352719 L 124.723938 45.352719 M 90.708313 56.688656 L 124.723938 56.688656 M 90.708313 22.676938 L 90.708313 56.692563 M 102.048156 22.676938 L 102.048156 56.692563 M 113.384094 22.676938 L 113.384094 56.692563 M 124.720031 22.676938 L 124.720031 56.692563 " transform="matrix(1,0,0,-1,11.737,57.091)"/>
<g clip-path="url(#clip3)" clip-rule="nonzero">
<path style="fill:none;stroke-width:0.3985;stroke-linecap:butt;stroke-linejoin:miter;stroke:rgb(0%,0%,0%);stroke-opacity:1;stroke-miterlimit:10;" d="M 158.739563 0.00115625 L 215.430969 0.00115625 M 158.739563 11.337094 L 215.430969 11.337094 M 158.739563 22.676938 L 215.430969 22.676938 M 158.739563 34.016781 L 215.430969 34.016781 M 158.739563 45.352719 L 215.430969 45.352719 M 158.739563 56.688656 L 215.430969 56.688656 M 158.739563 0.00115625 L 158.739563 56.692563 M 170.079406 0.00115625 L 170.079406 56.692563 M 181.415344 0.00115625 L 181.415344 56.692563 M 192.755188 0.00115625 L 192.755188 56.692563 M 204.095031 0.00115625 L 204.095031 56.692563 M 215.427063 0.00115625 L 215.427063 56.692563 " transform="matrix(1,0,0,-1,11.737,57.091)"/>
</g>
<g clip-path="url(#clip4)" clip-rule="nonzero">
<path style="fill:none;stroke-width:0.79701;stroke-linecap:butt;stroke-linejoin:miter;stroke:rgb(100%,0%,0%);stroke-opacity:1;stroke-miterlimit:10;" d="M 192.755188 22.676938 L 226.770813 22.676938 M 192.755188 34.016781 L 226.770813 34.016781 M 192.755188 45.352719 L 226.770813 45.352719 M 192.755188 56.688656 L 226.770813 56.688656 M 192.755188 22.676938 L 192.755188 56.692563 M 204.095031 22.676938 L 204.095031 56.692563 M 215.430969 22.676938 L 215.430969 56.692563 M 226.766906 22.676938 L 226.766906 56.692563 " transform="matrix(1,0,0,-1,11.737,57.091)"/>
</g>
</g>
</svg>
