<?xml version="1.0" encoding="UTF-8"?>
<svg xmlns="http://www.w3.org/2000/svg" xmlns:xlink="http://www.w3.org/1999/xlink" width="216.227pt" height="57.29pt" viewBox="0 0 216.227 57.29" version="1.1">
<defs>
<clipPath id="clip1">
  <path d="M 0 0 L 58 0 L 58 57.289062 L 0 57.289062 Z M 0 0 "/>
</clipPath>
<clipPath id="clip2">
  <path d="M 79 0 L 137 0 L 137 57.289062 L 79 57.289062 Z M 79 0 "/>
</clipPath>
<clipPath id="clip3">
  <path d="M 158 0 L 216.226562 0 L 216.226562 57.289062 L 158 57.289062 Z M 158 0 "/>
</clipPath>
<clipPath id="clip4">
  <path d="M 181 0 L 216.226562 0 L 216.226562 35 L 181 35 Z M 181 0 "/>
</clipPath>
</defs>
<g id="surface1">
<g clip-path="url(#clip1)" clip-rule="nonzero">
<path style="fill:none;stroke-width:0.3985;stroke-linecap:butt;stroke-linejoin:miter;stroke:rgb(0%,0%,0%);stroke-opacity:1;stroke-miterlimit:10;" d="M 79.368437 0.00115625 L 136.06375 0.00115625 M 79.368437 11.337094 L 136.06375 11.337094 M 79.368437 22.676938 L 136.06375 22.676938 M 79.368437 34.016781 L 136.06375 34.016781 M 79.368437 45.352719 L 136.06375 45.352719 M 79.368437 56.688656 L 136.06375 56.688656 M 79.368437 0.00115625 L 79.368437 56.692563 M 90.708281 0.00115625 L 90.708281 56.692563 M 102.048125 0.00115625 L 102.048125 56.692563 M 113.384062 0.00115625 L 113.384062 56.692563 M 124.723906 0.00115625 L 124.723906 56.692563 M 136.059844 0.00115625 L 136.059844 56.692563 " transform="matrix(1,0,0,-1,-78.97,57.091)"/>
</g>
<path style="fill:none;stroke-width:0.79701;stroke-linecap:butt;stroke-linejoin:miter;stroke:rgb(100%,0%,0%);stroke-opacity:1;stroke-miterlimit:10;" d="M 79.368437 22.676938 L 113.384062 22.676938 M 79.368437 34.016781 L 113.384062 34.016781 M 79.368437 45.352719 L 113.384062 45.352719 M 79.368437 56.688656 L 113.384062 56.688656 M 79.368437 22.676938 L 79.368437 56.692563 M 90.708281 22.676938 L 90.708281 56.692563 M 102.048125 22.676938 L 102.048125 56.692563 M 113.380156 22.676938 L 113.380156 56.692563 " transform="matrix(1,0,0,-1,-78.97,57.091)"/>
<g clip-path="url(#clip2)" clip-rule="nonzero">
<path style="fill:none;stroke-width:0.3985;stroke-linecap:butt;stroke-linejoin:miter;stroke:rgb(0%,0%,0%);stroke-opacity:1;stroke-miterlimit:10;" d="M 158.739531 0.00115625 L 215.430937 0.00115625 M 158.739531 11.337094 L 215.430937 11.337094 M 158.739531 22.676938 L 215.430937 22.676938 M 158.739531 34.016781 L 215.430937 34.016781 M 158.739531 45.352719 L 215.430937 45.352719 M 158.739531 56.688656 L 215.430937 56.688656 M 158.739531 0.00115625 L 158.739531 56.692563 M 170.079375 0.00115625 L 170.079375 56.692563 M 181.415312 0.00115625 L 181.415312 56.692563 M 192.755156 0.00115625 L 192.755156 56.692563 M 204.095 0.00115625 L 204.095 56.692563 M 215.427031 0.00115625 L 215.427031 56.692563 " transform="matrix(1,0,0,-1,-78.97,57.091)"/>
</g>
<path style="fill:none;stroke-width:0.79701;stroke-linecap:butt;stroke-linejoin:miter;stroke:rgb(100%,0%,0%);stroke-opacity:1;stroke-miterlimit:10;" d="M 170.079375 22.676938 L 204.095 22.676938 M 170.079375 34.016781 L 204.095 34.016781 M 170.079375 45.352719 L 204.095 45.352719 M 170.079375 56.688656 L 204.095 56.688656 M 170.079375 22.676938 L 170.079375 56.692563 M 181.415312 22.676938 L 181.415312 56.692563 M 192.755156 22.676938 L 192.755156 56.692563 M 204.091094 22.676938 L 204.091094 56.692563 " transform="matrix(1,0,0,-1,-78.97,57.091)"/>
<g clip-path="url(#clip3)" clip-rule="nonzero">
<path style="fill:none;stroke-width:0.3985;stroke-linecap:butt;stroke-linejoin:miter;stroke:rgb(0%,0%,0%);stroke-opacity:1;stroke-miterlimit:10;" d="M 238.110625 0.00115625 L 294.802031 0.00115625 M 238.110625 11.337094 L 294.802031 11.337094 M 238.110625 22.676938 L 294.802031 22.676938 M 238.110625 34.016781 L 294.802031 34.016781 M 238.110625 45.352719 L 294.802031 45.352719 M 238.110625 56.688656 L 294.802031 56.688656 M 238.110625 0.00115625 L 238.110625 56.692563 M 249.446562 0.00115625 L 249.446562 56.692563 M 260.786406 0.00115625 L 260.786406 56.692563 M 272.12625 0.00115625 L 272.12625 56.692563 M 283.462188 0.00115625 L 283.462188 56.692563 M 294.798125 0.00115625 L 294.798125 56.692563 " transform="matrix(1,0,0,-1,-78.97,57.091)"/>
</g>
<g clip-path="url(#clip4)" clip-rule="nonzero">
<path style="fill:none;stroke-width:0.79701;stroke-linecap:butt;stroke-linejoin:miter;stroke:rgb(100%,0%,0%);stroke-opacity:1;stroke-miterlimit:10;" d="M 260.786406 22.676938 L 294.802031 22.676938 M 260.786406 34.016781 L 294.802031 34.016781 M 260.786406 45.352719 L 294.802031 45.352719 M 260.786406 56.688656 L 294.802031 56.688656 M 260.786406 22.676938 L 260.786406 56.692563 M 272.12625 22.676938 L 272.12625 56.692563 M 283.462188 22.676938 L 283.462188 56.692563 M 294.798125 22.676938 L 294.798125 56.692563 " transform="matrix(1,0,0,-1,-78.97,57.091)"/>
</g>
</g>
</svg>
