<?xml version="1.0" encoding="UTF-8"?>
<svg xmlns="http://www.w3.org/2000/svg" xmlns:xlink="http://www.w3.org/1999/xlink" width="397.641pt" height="57.29pt" viewBox="0 0 397.641 57.29" version="1.1">
<defs>
<clipPath id="clip1">
  <path d="M 11 0 L 69 0 L 69 57.289062 L 11 57.289062 Z M 11 0 "/>
</clipPath>
<clipPath id="clip2">
  <path d="M 90 0 L 148 0 L 148 57.289062 L 90 57.289062 Z M 90 0 "/>
</clipPath>
<clipPath id="clip3">
  <path d="M 170 0 L 228 0 L 228 57.289062 L 170 57.289062 Z M 170 0 "/>
</clipPath>
<clipPath id="clip4">
  <path d="M 249 0 L 307 0 L 307 57.289062 L 249 57.289062 Z M 249 0 "/>
</clipPath>
<clipPath id="clip5">
  <path d="M 329 0 L 387 0 L 387 57.289062 L 329 57.289062 Z M 329 0 "/>
</clipPath>
<clipPath id="clip6">
  <path d="M 362 0 L 397.640625 0 L 397.640625 35 L 362 35 Z M 362 0 "/>
</clipPath>
</defs>
<g id="surface1">
<g clip-path="url(#clip1)" clip-rule="nonzero">
<path style="fill:none;stroke-width:0.3985;stroke-linecap:butt;stroke-linejoin:miter;stroke:rgb(0%,0%,0%);stroke-opacity:1;stroke-miterlimit:10;" d="M 0.00128125 0.00115625 L 56.692688 0.00115625 M 0.00128125 11.337094 L 56.692688 11.337094 M 0.00128125 22.676938 L 56.692688 22.676938 M 0.00128125 34.016781 L 56.692688 34.016781 M 0.00128125 45.352719 L 56.692688 45.352719 M 0.00128125 56.688656 L 56.692688 56.688656 M 0.00128125 0.00115625 L 0.00128125 56.692563 M 11.337219 0.00115625 L 11.337219 56.692563 M 22.677063 0.00115625 L 22.677063 56.692563 M 34.016906 0.00115625 L 34.016906 56.692563 M 45.352844 0.00115625 L 45.352844 56.692563 M 56.688781 0.00115625 L 56.688781 56.692563 " transform="matrix(1,0,0,-1,11.737,57.091)"/>
</g>
<path style="fill:none;stroke-width:0.79701;stroke-linecap:butt;stroke-linejoin:miter;stroke:rgb(100%,0%,0%);stroke-opacity:1;stroke-miterlimit:10;" d="M -11.338562 22.676938 L 22.677063 22.676938 M -11.338562 34.016781 L 22.677063 34.016781 M -11.338562 45.352719 L 22.677063 45.352719 M -11.338562 56.688656 L 22.677063 56.688656 M -11.338562 22.676938 L -11.338562 56.692563 M 0.00128125 22.676938 L 0.00128125 56.692563 M 11.337219 22.676938 L 11.337219 56.692563 M 22.673156 22.676938 L 22.673156 56.692563 " transform="matrix(1,0,0,-1,11.737,57.091)"/>
<g clip-path="url(#clip2)" clip-rule="nonzero">
<path style="fill:none;stroke-width:0.3985;stroke-linecap:butt;stroke-linejoin:miter;stroke:rgb(0%,0%,0%);stroke-opacity:1;stroke-miterlimit:10;" d="M 79.368469 0.00115625 L 136.063781 0.00115625 M 79.368469 11.337094 L 136.063781 11.337094 M 79.368469 22.676938 L 136.063781 22.676938 M 79.368469 34.016781 L 136.063781 34.016781 M 79.368469 45.352719 L 136.063781 45.352719 M 79.368469 56.688656 L 136.063781 56.688656 M 79.368469 0.00115625 L 79.368469 56.692563 M 90.708313 0.00115625 L 90.708313 56.692563 M 102.048156 0.00115625 L 102.048156 56.692563 M 113.384094 0.00115625 L 113.384094 56.692563 M 124.723938 0.00115625 L 124.723938 56.692563 M 136.059875 0.00115625 L 136.059875 56.692563 " transform="matrix(1,0,0,-1,11.737,57.091)"/>
</g>
<path style="fill:none;stroke-width:0.79701;stroke-linecap:butt;stroke-linejoin:miter;stroke:rgb(100%,0%,0%);stroke-opacity:1;stroke-miterlimit:10;" d="M 79.368469 22.676938 L 113.384094 22.676938 M 79.368469 34.016781 L 113.384094 34.016781 M 79.368469 45.352719 L 113.384094 45.352719 M 79.368469 56.688656 L 113.384094 56.688656 M 79.368469 22.676938 L 79.368469 56.692563 M 90.708313 22.676938 L 90.708313 56.692563 M 102.048156 22.676938 L 102.048156 56.692563 M 113.380188 22.676938 L 113.380188 56.692563 " transform="matrix(1,0,0,-1,11.737,57.091)"/>
<g clip-path="url(#clip3)" clip-rule="nonzero">
<path style="fill:none;stroke-width:0.3985;stroke-linecap:butt;stroke-linejoin:miter;stroke:rgb(0%,0%,0%);stroke-opacity:1;stroke-miterlimit:10;" d="M 158.739563 0.00115625 L 215.430969 0.00115625 M 158.739563 11.337094 L 215.430969 11.337094 M 158.739563 22.676938 L 215.430969 22.676938 M 158.739563 34.016781 L 215.430969 34.016781 M 158.739563 45.352719 L 215.430969 45.352719 M 158.739563 56.688656 L 215.430969 56.688656 M 158.739563 0.00115625 L 158.739563 56.692563 M 170.079406 0.00115625 L 170.079406 56.692563 M 181.415344 0.00115625 L 181.415344 56.692563 M 192.755188 0.00115625 L 192.755188 56.692563 M 204.095031 0.00115625 L 204.095031 56.692563 M 215.427063 0.00115625 L 215.427063 56.692563 " transform="matrix(1,0,0,-1,11.737,57.091)"/>
</g>
<path style="fill:none;stroke-width:0.79701;stroke-linecap:butt;stroke-linejoin:miter;stroke:rgb(100%,0%,0%);stroke-opacity:1;stroke-miterlimit:10;" d="M 170.079406 22.676938 L 204.095031 22.676938 M 170.079406 34.016781 L 204.095031 34.016781 M 170.079406 45.352719 L 204.095031 45.352719 M 170.079406 56.688656 L 204.095031 56.688656 M 170.079406 22.676938 L 170.079406 56.692563 M 181.415344 22.676938 L 181.415344 56.692563 M 192.755188 22.676938 L 192.755188 56.692563 M 204.091125 22.676938 L 204.091125 56.692563 " transform="matrix(1,0,0,-1,11.737,57.091)"/>
<g clip-path="url(#clip4)" clip-rule="nonzero">
<path style="fill:none;stroke-width:0.3985;stroke-linecap:butt;stroke-linejoin:miter;stroke:rgb(0%,0%,0%);stroke-opacity:1;stroke-miterlimit:10;" d="M 238.110656 0.00115625 L 294.802062 0.00115625 M 238.110656 11.337094 L 294.802062 11.337094 M 238.110656 22.676938 L 294.802062 22.676938 M 238.110656 34.016781 L 294.802062 34.016781 M 238.110656 45.352719 L 294.802062 45.352719 M 238.110656 56.688656 L 294.802062 56.688656 M 238.110656 0.00115625 L 238.110656 56.692563 M 249.446594 0.00115625 L 249.446594 56.692563 M 260.786437 0.00115625 L 260.786437 56.692563 M 272.126281 0.00115625 L 272.126281 56.692563 M 283.462219 0.00115625 L 283.462219 56.692563 M 294.798156 0.00115625 L 294.798156 56.692563 " transform="matrix(1,0,0,-1,11.737,57.091)"/>
</g>
<path style="fill:none;stroke-width:0.79701;stroke-linecap:butt;stroke-linejoin:miter;stroke:rgb(100%,0%,0%);stroke-opacity:1;stroke-miterlimit:10;" d="M 260.786437 22.676938 L 294.802062 22.676938 M 260.786437 34.016781 L 294.802062 34.016781 M 260.786437 45.352719 L 294.802062 45.352719 M 260.786437 56.688656 L 294.802062 56.688656 M 260.786437 22.676938 L 260.786437 56.692563 M 272.126281 22.676938 L 272.126281 56.692563 M 283.462219 22.676938 L 283.462219 56.692563 M 294.798156 22.676938 L 294.798156 56.692563 " transform="matrix(1,0,0,-1,11.737,57.091)"/>
<g clip-path="url(#clip5)" clip-rule="nonzero">
<path style="fill:none;stroke-width:0.3985;stroke-linecap:butt;stroke-linejoin:miter;stroke:rgb(0%,0%,0%);stroke-opacity:1;stroke-miterlimit:10;" d="M 317.477844 0.00115625 L 374.173156 0.00115625 M 317.477844 11.337094 L 374.173156 11.337094 M 317.477844 22.676938 L 374.173156 22.676938 M 317.477844 34.016781 L 374.173156 34.016781 M 317.477844 45.352719 L 374.173156 45.352719 M 317.477844 56.688656 L 374.173156 56.688656 M 317.477844 0.00115625 L 317.477844 56.692563 M 328.817687 0.00115625 L 328.817687 56.692563 M 340.157531 0.00115625 L 340.157531 56.692563 M 351.493469 0.00115625 L 351.493469 56.692563 M 362.833312 0.00115625 L 362.833312 56.692563 M 374.16925 0.00115625 L 374.16925 56.692563 " transform="matrix(1,0,0,-1,11.737,57.091)"/>
</g>
<g clip-path="url(#clip6)" clip-rule="nonzero">
<path style="fill:none;stroke-width:0.79701;stroke-linecap:butt;stroke-linejoin:miter;stroke:rgb(100%,0%,0%);stroke-opacity:1;stroke-miterlimit:10;" d="M 351.493469 22.676938 L 385.509094 22.676938 M 351.493469 34.016781 L 385.509094 34.016781 M 351.493469 45.352719 L 385.509094 45.352719 M 351.493469 56.688656 L 385.509094 56.688656 M 351.493469 22.676938 L 351.493469 56.692563 M 362.833312 22.676938 L 362.833312 56.692563 M 374.173156 22.676938 L 374.173156 56.692563 M 385.505187 22.676938 L 385.505187 56.692563 " transform="matrix(1,0,0,-1,11.737,57.091)"/>
</g>
</g>
</svg>
